<?xml version="1.0" encoding="utf-8"?>
<!-- Generator: Adobe Illustrator 24.2.3, SVG Export Plug-In . SVG Version: 6.00 Build 0)  -->
<svg version="1.1" id="Layer_1" xmlns="http://www.w3.org/2000/svg" xmlns:xlink="http://www.w3.org/1999/xlink" x="0px" y="0px"
	 viewBox="0 0 171.5 188.2" style="enable-background:new 0 0 171.5 188.2;" xml:space="preserve">
<style type="text/css">
	.st0{fill:#B3B5B7;}
	.st1{fill:#D9DADB;}
	.st2{fill:#B0B4B7;}
	.st3{fill:#0162A9;}
	.st4{fill:#D9D9D9;}
	.st5{fill:#0161A9;}
	.st6{fill:#02275B;}
	.st7{fill:#0660A3;}
	.st8{fill:#B2B3B5;}
	.st9{fill:#F0F0F2;}
	.st10{fill:#B0B4B4;}
</style>
<g>
	<path class="st0" d="M63.6,19.5V6.9l18,3.4v11.4L63.6,19.5z"/>
	<path class="st1" d="M62.9,19.8V6.9l-14.2,6.4v11.6L62.9,19.8z"/>
	<path class="st2" d="M81,165.9l-17.4,1.9v13.5l17.4-3.5V165.9z"/>
	<path class="st3" d="M138.8,154.2l-21.2,2.3v12.2l21.2-4.8V154.2z"/>
	<path class="st4" d="M139.5,56.8l-75.9-3.5v7.7h53.3L139.5,56.8z"/>
	<path class="st5" d="M62.9,25.6l-31.5,9.3v131.2l31.5,15.2V25.6z"/>
	<path class="st6" d="M63.6,53.4V25.6l75.3,8v23.6L63.6,53.4z"/>
	<path class="st7" d="M138.9,57.1L117,61.1V64l21.9,4.7V57.1z"/>
	<path class="st8" d="M117,124V63.5l48.3,11.6v36.2L117,124z"/>
	<path class="st4" d="M116.3,64.2l-53.4,5.5v48.8l53.4,4.9V64.2z"/>
	<path class="st3" d="M117,126.1V124l21.9-5.8v12.2L117,126.1z"/>
	<path class="st9" d="M116.5,125.9H62.9v7.1l75.9-2.8L116.5,125.9z"/>
	<path class="st10" d="M62.9,162.6v-28.8l75.9-4v24.5L62.9,162.6z"/>
	<path class="st4" d="M31.4,73.2L6.3,75.4v36l25.1,2.3V73.2z"/>
</g>
</svg>
