<?xml version="1.0" encoding="utf-8"?>
<!-- Generator: Adobe Illustrator 24.2.3, SVG Export Plug-In . SVG Version: 6.00 Build 0)  -->
<svg version="1.1" id="Layer_1" xmlns="http://www.w3.org/2000/svg" xmlns:xlink="http://www.w3.org/1999/xlink" x="0px" y="0px"
	 viewBox="0 0 230.3 83" style="enable-background:new 0 0 230.3 83;" xml:space="preserve">
<style type="text/css">
	.st0{fill:#022858;}
	.st1{fill:#B3B5B7;}
	.st2{fill:#D9DADB;}
	.st3{fill:#B0B4B7;}
	.st4{fill:#0162A9;}
	.st5{fill:#D9D9D9;}
	.st6{fill:#0161A9;}
	.st7{fill:#02275B;}
	.st8{fill:#0660A3;}
	.st9{fill:#B2B3B5;}
	.st10{fill:#F0F0F2;}
	.st11{fill:#B0B4B4;}
</style>
<g>
	<path class="st0" d="M123,61.1H94V22.5h28.2c7.5,0,12.5,3.4,12.5,10c0,4.9-2.5,7.3-5.4,8.2c3.5,1.1,6,4.2,6,8.7
		C135.4,56.5,130.5,61.1,123,61.1z M122.7,44.3h-17.1v-5.7h16.7c3.8,0,5.6-1.3,5.6-4.7c0-4.1-3.2-4.7-8.2-4.7h-18.9v25.1h19.5
		c4.8,0,8.3-1.3,8.3-5.1C128.5,46.1,126.5,44.3,122.7,44.3z M189.2,61.1h-8.1l-5.8-9.7h-18.2l3.2-5.5h11.8l-8.6-14.4L146,61.1h-7.7
		l22.2-36.9c0.8-1.3,1.8-2.2,3.3-2.2s2.4,0.8,3.2,2.2L189.2,61.1z M208.3,61.1h-6.7V29.2h-14.6v-6.7h36v6.7h-14.6V61.1z"/>
	<g>
		<path class="st1" d="M32.9,8.3V2.7l8,1.5v5.1L32.9,8.3z"/>
		<path class="st2" d="M32.6,8.4V2.7l-6.3,2.9v5.2L32.6,8.4z"/>
		<path class="st3" d="M40.6,73.5l-7.7,0.9v6l7.7-1.6V73.5z"/>
		<path class="st4" d="M66.4,68.3l-9.5,1v5.5l9.5-2.2V68.3z"/>
		<path class="st5" d="M66.7,24.9l-33.8-1.6v3.4h23.8L66.7,24.9z"/>
		<path class="st6" d="M32.6,11l-14.1,4.2v58.5l14.1,6.8V11z"/>
		<path class="st7" d="M32.9,23.4V11l33.6,3.6V25L32.9,23.4z"/>
		<path class="st8" d="M66.5,25l-9.8,1.8v1.3l9.8,2.1V25z"/>
		<path class="st9" d="M56.7,54.9v-27l21.5,5.2v16.1L56.7,54.9z"/>
		<path class="st5" d="M56.4,28.2l-23.8,2.5v21.8l23.8,2.2V28.2z"/>
		<path class="st4" d="M56.7,55.8v-1l9.8-2.6v5.4L56.7,55.8z"/>
		<path class="st10" d="M56.5,55.7H32.6v3.2l33.8-1.2L56.5,55.7z"/>
		<path class="st11" d="M32.6,72.1V59.2l33.8-1.8v10.9L32.6,72.1z"/>
		<path class="st5" d="M18.5,32.2l-11.2,1v16.1l11.2,1V32.2z"/>
	</g>
</g>
</svg>
