<svg id="Layer_1" data-name="Layer 1" xmlns="http://www.w3.org/2000/svg" viewBox="0 0 535.39 1109.67"><defs><style>.cls-1{fill:#333;}</style></defs><rect class="cls-1" x="6.97" y="3.88" width="521.45" height="1101.9" rx="78.96"/><path d="M535.39,427.43a9.4,9.4,0,0,0-.79-3.2c-.75-2-2.29-3.9-2.32-5.85-.24-18.48-.27-37-.26-55.45,0-3.14-.67-7.26,1-9.2,2.61-3.06,1.93-5.9,1.93-9l.21-116.88c0-8.47,0-17,0-25.42-1.58-2.18-2.9-4.61-2.91-7-.19-43-.11-85.91-.34-128.87-.11-20-6.95-37.3-22.14-51C501.05,7.59,490.29,4.33,479.67.55l.09,0-.36,0h.2a19.06,19.06,0,0,1-4.55.68C471.44,1,467.85,0,464.25,0Q363.66-.06,263.07,0,164.72,0,66.37.1c-3.49,0-7,1-10.49,1.47a24.78,24.78,0,0,1-3,.07L53,1.57l-.33,0,.12,0C48.16,3,43.4,4,39,5.81c-4.87,2-9.87,4.26-14,7.47C11.13,24.15,2.89,38.57,1.51,56.22.44,70,0,83.81,0,97.6q-.09,298.73,0,597.45,0,166.59.18,333.19c0,11.9.24,24.33,3.54,35.58,8.34,28.41,30.41,44.22,60.09,45.09q24.71.72,49.43.7,156.84.11,313.7,0c15.48,0,31,0,46.41-1a60.61,60.61,0,0,0,38.83-17.43c13.93-13.44,19.31-30.34,19.35-49.23.07-31.63,0-63.26,0-94.89q.18-161.84.37-323.68c0-31.13-.4-62.27-.19-93.4.06-8.75-1.18-17.87,3.39-26.12Q535.29,465.63,535.39,427.43ZM514.45,975.51c0,21.31,0,42.63-.27,63.94-.38,32.13-17.27,50.08-49.38,52.27-10.28.7-20.63.74-30.95.74q-175.59.11-351.19.06c-11.66,0-23.34-.34-34.48-4.48-17.3-6.43-27.79-19.24-29-37.19-1.81-26.54-2-53.22-2-79.84.08-129.38.65-258.77.68-388.15q0-230.05-.52-460.1c0-16.31-.34-32.65.23-48.95a95,95,0,0,1,3.66-24.52c6-19.62,21-28.83,40.49-31.23a180.46,180.46,0,0,1,21.94-1q185.6,0,371.18.23c7.77,0,15.76.46,23.27,2.28,22,5.33,35.67,22.53,35.95,45.73.42,35.3.16,70.6.16,105.9q0,191.84,0,383.67h.25Q514.46,765.2,514.45,975.51Z"/><path d="M477.56.65l1.84-.1-1.85-.1Z"/><path d="M266.41,29.78c-6.65-.12-13,6.25-13.13,13.11a12.47,12.47,0,0,0,12.73,13c7.36.06,12.76-5.42,12.78-12.94C278.8,36.43,272.68,29.9,266.41,29.78Z"/></svg>